<?xml version="1.0" encoding="UTF-8" standalone="no"?><!DOCTYPE svg PUBLIC "-//W3C//DTD SVG 1.1//EN" "http://www.w3.org/Graphics/SVG/1.1/DTD/svg11.dtd"><svg width="100%" height="100%" viewBox="0 0 120 107" version="1.1" xmlns="http://www.w3.org/2000/svg" xmlns:xlink="http://www.w3.org/1999/xlink" xml:space="preserve" xmlns:serif="http://www.serif.com/" style="fill-rule:evenodd;clip-rule:evenodd;stroke-linejoin:round;stroke-miterlimit:2;"><path d="M67.87,66.797c3.261,-5.429 4.407,-7.849 -0.284,-14.011l-9.928,-10.049c-4.352,-2.081 -8.959,-1.653 -14.068,1.395l-4.117,3.846l-3.55,4.533c-3.626,6.356 -17.455,9.209 -18.175,8.792l-5.253,2.198l-4.828,2.884c-3.799,3.821 -6.9,8.402 -7.667,15.523c0.63,3.8 1.57,7.601 3.834,11.401l4.685,5.22l8.52,6.181c5.772,2.751 15.052,1.325 18.174,-0.686l3.834,-2.885l5.679,-6.456l3.408,-7.968c1.502,-4.849 4.509,-9.116 9.797,-12.5l4.118,-3.022l5.821,-4.396Z" style="fill:#90caf9;fill-opacity:0.87;"/><path d="M15.185,80.689l6.821,7.028l3.356,3.824l-3.464,2.583l-10.394,-10.748l3.681,-2.687Z" style="fill:#fff;fill-opacity:0.28;"/><path d="M37.698,65.165l-0.928,-1.174c-1.394,-0.515 -1.788,-2.021 -1.16,-3.501l1.358,-1.165c0.697,-1.19 1.132,-2.397 1.423,-1.801c0.615,1.258 2.23,4.073 3.796,4.655c-1.946,-0.375 -3.926,-6.316 -0.48,-8.781c1.152,-0.475 2.304,-0.379 3.455,0.433l1.207,0.647l2.34,0.096c1.722,1.015 -0.845,4.493 -0.703,7.328l2.358,-5.384c0.704,-1.026 1.857,-1.222 3.067,-0.157c1.172,-0.18 1.956,0.394 2.959,2.144c-0.149,0.413 -0.08,0.97 -0.397,2.671c-1.242,1.631 -0.14,0.968 -1.123,2.599c-5.207,-0.513 -6.328,-0.022 -6.115,0.808c2.409,0.238 5.411,-0.183 7.327,0.041c1.54,0.221 2.511,2.563 -0.112,3.534l-0.629,1.865l-1.872,1.414l-1.531,0.302l-1.761,-0.899l-2.674,-4.376l1.241,4.206c-0.204,1.147 -0.731,1.832 -1.608,2.015c-0.817,0.446 -1.634,0.57 -2.45,0.373c-0.652,-0.771 -1.62,-1.24 -2.778,-1.045c-1.408,0.604 -2.552,0.621 -3.455,0.099c-0.845,-0.542 -1.19,-1.95 -0.856,-3.296l-0.428,-1.351l0.885,-1.319c1.629,-0.673 3.756,-0.875 6.414,-1.384l-6.77,0.403Z" style="fill:#fff;fill-opacity:0.28;"/><path d="M61.924,44.338l12.057,-10.064l6.251,-4.872l6.922,-5.827l5.248,-4.768l1.568,-2.972l-1.657,-4.789l-3.559,-1.605l-3.008,0.523l2.682,-3.394l4.9,0.227l3.446,1.923l1.669,0.643l1.896,-0.951l-1.106,-2.767l-2.778,-1.922c-1.849,0.408 -4.235,-0.735 -6.676,-2.039l5.907,-1.684l3.116,0.966l4.338,1.82l1.441,2.343l2.19,5.996c0,0 8.023,2.593 8.028,3.282l2.131,1.51l2.093,1.372c0,0 0.666,0.64 0.662,1.916c-0.003,1.276 -0.569,4.463 -0.569,4.463l-1.015,4.356l-0.437,-2.872l-0.551,-2.128l-2.665,-2.878l-1.555,-1.173l-2.226,-0.432l-2.565,1.268l0.888,0.959c2.113,1.294 3.222,2.265 3.555,2.987l-0.006,2.02l-1.236,3.824l-3.348,2.222l-0.101,-3.614l-0.437,-2.659l-1.443,-1.705l-2.448,-0.645l-3.346,1.584l-4.239,2.327l-3.013,2.33l-3.797,3.497l-3.35,3.286l-5.584,5.086l-8.932,7.947l-3.014,2.436l-5.997,-5.758l-1.222,-0.96l0.892,-0.635Z" style="fill:#90caf9;fill-opacity:0.87;"/></svg>